<svg width="69" height="14" viewBox="0 0 69 14" fill="none" xmlns="http://www.w3.org/2000/svg">
<path d="M1.2 3.464H2.316L6.144 9.668H6.06V3.464H6.996V11H5.952L1.992 4.592H2.136V11H1.2V3.464ZM13.2071 11.144C12.7111 11.144 12.2671 11.018 11.8751 10.766C11.4871 10.51 11.1791 10.156 10.9511 9.704C10.7271 9.252 10.6151 8.732 10.6151 8.144C10.6151 7.516 10.7271 6.976 10.9511 6.524C11.1751 6.072 11.4811 5.726 11.8691 5.486C12.2611 5.242 12.7071 5.12 13.2071 5.12C13.6431 5.12 14.0151 5.208 14.3231 5.384C14.6311 5.56 14.8791 5.798 15.0671 6.098C15.2551 6.398 15.3851 6.738 15.4571 7.118C15.5331 7.494 15.5551 7.884 15.5231 8.288H11.3711V7.712H14.9051L14.6291 7.892C14.6411 7.656 14.6271 7.42 14.5871 7.184C14.5511 6.948 14.4811 6.732 14.3771 6.536C14.2731 6.336 14.1271 6.176 13.9391 6.056C13.7511 5.936 13.5111 5.876 13.2191 5.876C12.8511 5.876 12.5431 5.97 12.2951 6.158C12.0471 6.346 11.8611 6.594 11.7371 6.902C11.6131 7.206 11.5511 7.536 11.5511 7.892V8.276C11.5511 8.676 11.6111 9.034 11.7311 9.35C11.8551 9.666 12.0391 9.916 12.2831 10.1C12.5271 10.284 12.8351 10.376 13.2071 10.376C13.5791 10.376 13.8851 10.286 14.1251 10.106C14.3651 9.926 14.5111 9.66 14.5631 9.308H15.5351C15.4751 9.688 15.3391 10.016 15.1271 10.292C14.9151 10.564 14.6451 10.774 14.3171 10.922C13.9891 11.07 13.6191 11.144 13.2071 11.144ZM23.0792 5.252H24.0152V11H23.0792V5.252ZM19.0112 5.252H19.9472V8.828C19.9472 9.308 20.0632 9.672 20.2952 9.92C20.5312 10.168 20.8672 10.292 21.3032 10.292C21.6632 10.292 21.9752 10.196 22.2392 10.004C22.5072 9.812 22.7132 9.548 22.8572 9.212C23.0052 8.872 23.0792 8.484 23.0792 8.048H23.4272C23.4272 8.692 23.3332 9.242 23.1452 9.698C22.9612 10.154 22.6992 10.504 22.3592 10.748C22.0232 10.988 21.6272 11.108 21.1712 11.108C20.7392 11.108 20.3612 11.028 20.0372 10.868C19.7132 10.708 19.4612 10.466 19.2812 10.142C19.1012 9.814 19.0112 9.4 19.0112 8.9V5.252ZM28.2448 11V5.252H29.1808V11H28.2448ZM28.8928 8.408C28.8928 7.68 28.9628 7.076 29.1028 6.596C29.2428 6.112 29.4468 5.752 29.7148 5.516C29.9868 5.276 30.3168 5.156 30.7048 5.156C30.8328 5.156 30.9488 5.166 31.0528 5.186C31.1608 5.202 31.2688 5.228 31.3768 5.264L31.3168 6.188C31.2048 6.152 31.0828 6.122 30.9508 6.098C30.8188 6.07 30.7008 6.056 30.5968 6.056C30.2568 6.056 29.9828 6.154 29.7748 6.35C29.5668 6.542 29.4148 6.814 29.3188 7.166C29.2268 7.518 29.1808 7.932 29.1808 8.408H28.8928ZM36.4568 11.144C35.9408 11.144 35.4808 11.03 35.0768 10.802C34.6768 10.574 34.3608 10.236 34.1288 9.788C33.8968 9.34 33.7808 8.788 33.7808 8.132C33.7808 7.472 33.8968 6.92 34.1288 6.476C34.3608 6.028 34.6768 5.69 35.0768 5.462C35.4808 5.234 35.9408 5.12 36.4568 5.12C36.9688 5.12 37.4248 5.234 37.8248 5.462C38.2288 5.69 38.5448 6.028 38.7728 6.476C39.0048 6.92 39.1208 7.472 39.1208 8.132C39.1208 8.788 39.0048 9.34 38.7728 9.788C38.5448 10.236 38.2288 10.574 37.8248 10.802C37.4248 11.03 36.9688 11.144 36.4568 11.144ZM36.4328 10.328C36.8048 10.328 37.1208 10.24 37.3808 10.064C37.6408 9.884 37.8368 9.63 37.9688 9.302C38.1048 8.974 38.1728 8.584 38.1728 8.132C38.1728 7.448 38.0308 6.91 37.7468 6.518C37.4628 6.122 37.0408 5.924 36.4808 5.924C36.1048 5.924 35.7868 6.014 35.5268 6.194C35.2708 6.37 35.0748 6.624 34.9388 6.956C34.8068 7.284 34.7408 7.676 34.7408 8.132C34.7408 8.808 34.8828 9.344 35.1668 9.74C35.4548 10.132 35.8768 10.328 36.4328 10.328Z" fill="black"/>
<path d="M42.7193 11V3.464H45.1433C45.9713 3.464 46.6033 3.674 47.0393 4.094C47.4793 4.51 47.6992 5.076 47.6992 5.792C47.6992 6.5 47.4793 7.062 47.0393 7.478C46.6033 7.89 45.9713 8.096 45.1433 8.096H43.6673V11H42.7193ZM43.6673 7.28H45.1433C45.6673 7.28 46.0633 7.146 46.3313 6.878C46.6033 6.61 46.7393 6.248 46.7393 5.792C46.7393 5.328 46.6033 4.958 46.3313 4.682C46.0633 4.406 45.6673 4.268 45.1433 4.268H43.6673V7.28ZM52.9398 11L52.8198 9.74V7.28C52.8198 6.764 52.7098 6.394 52.4898 6.17C52.2698 5.942 51.9398 5.828 51.4998 5.828C51.2518 5.828 51.0258 5.864 50.8218 5.936C50.6218 6.008 50.4618 6.12 50.3418 6.272C50.2258 6.42 50.1678 6.612 50.1678 6.848H49.1238C49.1238 6.432 49.2258 6.098 49.4298 5.846C49.6338 5.59 49.9138 5.406 50.2698 5.294C50.6298 5.178 51.0398 5.12 51.4998 5.12C51.9398 5.12 52.3298 5.194 52.6698 5.342C53.0098 5.49 53.2758 5.726 53.4678 6.05C53.6598 6.37 53.7558 6.788 53.7558 7.304V11H52.9398ZM50.9838 11.144C50.5118 11.144 50.1218 11.06 49.8138 10.892C49.5058 10.724 49.2758 10.506 49.1238 10.238C48.9718 9.97 48.8958 9.688 48.8958 9.392C48.8958 9.004 48.9918 8.688 49.1838 8.444C49.3798 8.2 49.6458 8.022 49.9818 7.91C50.3178 7.794 50.6958 7.736 51.1158 7.736C51.4158 7.736 51.7158 7.766 52.0158 7.826C52.3198 7.886 52.6158 7.968 52.9038 8.072V8.66C52.6638 8.564 52.3918 8.488 52.0878 8.432C51.7878 8.376 51.5118 8.348 51.2598 8.348C50.8758 8.348 50.5518 8.428 50.2878 8.588C50.0238 8.744 49.8918 9.012 49.8918 9.392C49.8918 9.672 49.9918 9.912 50.1918 10.112C50.3958 10.312 50.7198 10.412 51.1638 10.412C51.4758 10.412 51.7558 10.34 52.0038 10.196C52.2558 10.048 52.4538 9.864 52.5978 9.644C52.7458 9.424 52.8198 9.204 52.8198 8.984H53.0478C53.0478 9.368 52.9638 9.724 52.7958 10.052C52.6318 10.38 52.3958 10.644 52.0878 10.844C51.7798 11.044 51.4118 11.144 50.9838 11.144ZM56.5252 3.908C56.3332 3.908 56.1812 3.854 56.0692 3.746C55.9572 3.634 55.9012 3.488 55.9012 3.308C55.9012 3.132 55.9572 2.992 56.0692 2.888C56.1812 2.784 56.3332 2.732 56.5252 2.732C56.7172 2.732 56.8692 2.784 56.9812 2.888C57.0932 2.992 57.1492 3.132 57.1492 3.308C57.1492 3.488 57.0932 3.634 56.9812 3.746C56.8692 3.854 56.7172 3.908 56.5252 3.908ZM56.0572 11V5.252H56.9932V11H56.0572ZM59.5714 11V5.252H60.5074V11H59.5714ZM60.2194 8.408C60.2194 7.68 60.2894 7.076 60.4294 6.596C60.5694 6.112 60.7734 5.752 61.0414 5.516C61.3134 5.276 61.6434 5.156 62.0314 5.156C62.1594 5.156 62.2754 5.166 62.3794 5.186C62.4874 5.202 62.5954 5.228 62.7034 5.264L62.6434 6.188C62.5314 6.152 62.4094 6.122 62.2774 6.098C62.1454 6.07 62.0274 6.056 61.9234 6.056C61.5834 6.056 61.3094 6.154 61.1014 6.35C60.8934 6.542 60.7414 6.814 60.6454 7.166C60.5534 7.518 60.5074 7.932 60.5074 8.408H60.2194ZM65.9713 11.144C65.4153 11.144 64.9513 11.066 64.5793 10.91C64.2073 10.75 63.9253 10.532 63.7333 10.256C63.5413 9.976 63.4393 9.656 63.4273 9.296H64.3273C64.3473 9.66 64.4933 9.934 64.7653 10.118C65.0413 10.298 65.4153 10.388 65.8873 10.388C66.1353 10.388 66.3633 10.348 66.5713 10.268C66.7793 10.188 66.9453 10.078 67.0693 9.938C67.1933 9.798 67.2553 9.64 67.2553 9.464C67.2553 9.24 67.1733 9.064 67.0093 8.936C66.8453 8.808 66.5833 8.696 66.2233 8.6L65.1073 8.24C64.6233 8.088 64.2513 7.88 63.9913 7.616C63.7353 7.348 63.6073 7.028 63.6073 6.656C63.6073 6.192 63.8113 5.82 64.2193 5.54C64.6273 5.26 65.1633 5.12 65.8273 5.12C66.5313 5.12 67.0773 5.264 67.4653 5.552C67.8533 5.84 68.0553 6.2 68.0713 6.632H67.1473C67.1113 6.38 66.9833 6.19 66.7633 6.062C66.5433 5.93 66.2313 5.864 65.8273 5.864C65.4393 5.864 65.1353 5.952 64.9153 6.128C64.6993 6.3 64.5913 6.492 64.5913 6.704C64.5913 7.1 64.9313 7.392 65.6113 7.58L66.7513 7.964C67.2433 8.112 67.6193 8.306 67.8793 8.546C68.1433 8.786 68.2753 9.092 68.2753 9.464C68.2753 9.752 68.1813 10.024 67.9933 10.28C67.8053 10.536 67.5393 10.744 67.1953 10.904C66.8513 11.064 66.4433 11.144 65.9713 11.144Z" fill="#557164"/>
</svg>
